{
  "accessors": [
    {
      "bufferView": 2,
      "componentType": 5126,
      "count": 64,
      "max": [
        1.0846688747406006,
        0.0,
        1.0846688747406006
      ],
      "min": [
        -1.0846688747406006,
        -0.08968346565961838,
        -1.0846688747406006
      ],
      "type": "VEC3"
    },
    {
      "bufferView": 2,
      "byteOffset": 768,
      "componentType": 5126,
      "count": 64,
      "max": [
        0.7271432876586914,
        -0.6864855289459229,
        0.7271432876586914
      ],
      "min": [
        -0.7271432876586914,
        -0.686485767364502,
        -0.7271432876586914
      ],
      "type": "VEC3"
    },
    {
      "bufferView": 1,
      "componentType": 5126,
      "count": 64,
      "max": [
        0.0,
        0.0
      ],
      "min": [
        0.0,
        0.0
      ],
      "type": "VEC2"
    },
    {
      "bufferView": 0,
      "componentType": 5125,
      "count": 192,
      "type": "SCALAR"
    },
    {
      "bufferView": 2,
      "byteOffset": 1536,
      "componentType": 5126,
      "count": 32,
      "max": [
        1.0,
        0.0,
        1.0
      ],
      "min": [
        -1.0,
        0.0,
        -1.0
      ],
      "type": "VEC3"
    },
    {
      "bufferView": 2,
      "byteOffset": 1920,
      "componentType": 5126,
      "count": 32,
      "max": [
        0.0,
        -1.0,
        -0.0
      ],
      "min": [
        0.0,
        -1.0,
        -0.0
      ],
      "type": "VEC3"
    },
    {
      "bufferView": 1,
      "byteOffset": 512,
      "componentType": 5126,
      "count": 32,
      "max": [
        0.0,
        0.0
      ],
      "min": [
        0.0,
        0.0
      ],
      "type": "VEC2"
    },
    {
      "bufferView": 0,
      "byteOffset": 768,
      "componentType": 5125,
      "count": 90,
      "type": "SCALAR"
    },
    {
      "bufferView": 2,
      "byteOffset": 2304,
      "componentType": 5126,
      "count": 5356,
      "max": [
        0.4740137755870819,
        3.260291576385498,
        0.35946887731552124
      ],
      "min": [
        -0.9185768961906433,
        0.982403576374054,
        -0.7192631959915161
      ],
      "type": "VEC3"
    },
    {
      "bufferView": 2,
      "byteOffset": 66576,
      "componentType": 5126,
      "count": 5356,
      "max": [
        0.9999035000801086,
        0.9977684020996094,
        0.9995445609092712
      ],
      "min": [
        -0.9995608329772949,
        -0.9856950044631958,
        -0.9992100596427917
      ],
      "type": "VEC3"
    },
    {
      "bufferView": 1,
      "byteOffset": 768,
      "componentType": 5126,
      "count": 5356,
      "max": [
        0.991339385509491,
        0.9935804605484009
      ],
      "min": [
        0.002388445660471916,
        0.008373841643333435
      ],
      "type": "VEC2"
    },
    {
      "bufferView": 0,
      "byteOffset": 1128,
      "componentType": 5125,
      "count": 7938,
      "type": "SCALAR"
    },
    {
      "bufferView": 2,
      "byteOffset": 130848,
      "componentType": 5126,
      "count": 35642,
      "max": [
        0.37998273968696594,
        3.449479579925537,
        0.3766796588897705
      ],
      "min": [
        -0.403613805770874,
        -0.001493215560913086,
        -0.42569902539253235
      ],
      "type": "VEC3"
    },
    {
      "bufferView": 2,
      "byteOffset": 558552,
      "componentType": 5126,
      "count": 35642,
      "max": [
        0.9999963641166687,
        0.9999407529830933,
        0.9996322989463806
      ],
      "min": [
        -0.999975860118866,
        -0.999940812587738,
        -0.9998776316642761
      ],
      "type": "VEC3"
    },
    {
      "bufferView": 1,
      "byteOffset": 43616,
      "componentType": 5126,
      "count": 35642,
      "max": [
        0.9961181879043579,
        0.9992812871932983
      ],
      "min": [
        0.0007186991279013455,
        0.0007186991279013455
      ],
      "type": "VEC2"
    },
    {
      "bufferView": 0,
      "byteOffset": 32880,
      "componentType": 5125,
      "count": 53202,
      "type": "SCALAR"
    },
    {
      "bufferView": 2,
      "byteOffset": 986256,
      "componentType": 5126,
      "count": 8784,
      "max": [
        0.25262802839279175,
        2.635262966156006,
        0.2302362024784088
      ],
      "min": [
        -0.2479945868253708,
        0.1436232328414917,
        -0.4587373733520508
      ],
      "type": "VEC3"
    },
    {
      "bufferView": 2,
      "byteOffset": 1091664,
      "componentType": 5126,
      "count": 8784,
      "max": [
        0.9974225759506226,
        0.9758300185203552,
        0.9998930096626282
      ],
      "min": [
        -0.9997273683547974,
        -0.9974232316017151,
        -0.9998624324798584
      ],
      "type": "VEC3"
    },
    {
      "bufferView": 1,
      "byteOffset": 328752,
      "componentType": 5126,
      "count": 8784,
      "max": [
        0.9939031004905701,
        0.9969844818115234
      ],
      "min": [
        0.003529177512973547,
        0.006770631298422813
      ],
      "type": "VEC2"
    },
    {
      "bufferView": 0,
      "byteOffset": 245688,
      "componentType": 5125,
      "count": 12960,
      "type": "SCALAR"
    },
    {
      "bufferView": 2,
      "byteOffset": 1197072,
      "componentType": 5126,
      "count": 941,
      "max": [
        0.19792771339416504,
        3.1216254234313965,
        0.34509992599487305
      ],
      "min": [
        -0.2473536729812622,
        2.6532199382781982,
        -0.03382048010826111
      ],
      "type": "VEC3"
    },
    {
      "bufferView": 2,
      "byteOffset": 1208364,
      "componentType": 5126,
      "count": 941,
      "max": [
        0.9975711703300476,
        0.993224024772644,
        0.9998653531074524
      ],
      "min": [
        -0.9992114305496216,
        -0.9940577149391174,
        -0.9943830370903015
      ],
      "type": "VEC3"
    },
    {
      "bufferView": 1,
      "byteOffset": 399024,
      "componentType": 5126,
      "count": 941,
      "max": [
        0.9899616241455078,
        0.9961953163146973
      ],
      "min": [
        0.02683165669441223,
        0.013323187828063965
      ],
      "type": "VEC2"
    },
    {
      "bufferView": 0,
      "byteOffset": 297528,
      "componentType": 5125,
      "count": 4104,
      "type": "SCALAR"
    }
  ],
  "asset": {
    "extras": {
      "author": "R4ven (https://sketchfab.com/R4ven3D)",
      "license": "CC-BY-4.0 (http://creativecommons.org/licenses/by/4.0/)",
      "source": "https://sketchfab.com/3d-models/hololive-ninomae-inanis-reupload-95911512692d4998ac103abf3d414b60",
      "title": "Hololive - Ninomae Ina'nis (REUPLOAD)"
    },
    "generator": "Sketchfab-15.30.0",
    "version": "2.0"
  },
  "bufferViews": [
    {
      "buffer": 0,
      "byteLength": 313944,
      "name": "floatBufferViews",
      "target": 34963
    },
    {
      "buffer": 0,
      "byteLength": 406552,
      "byteOffset": 313944,
      "byteStride": 8,
      "name": "floatBufferViews",
      "target": 34962
    },
    {
      "buffer": 0,
      "byteLength": 1219656,
      "byteOffset": 720496,
      "byteStride": 12,
      "name": "floatBufferViews",
      "target": 34962
    }
  ],
  "buffers": [
    {
      "byteLength": 1940152,
      "uri": "scene.bin"
    }
  ],
  "extensionsUsed": [
    "KHR_materials_unlit"
  ],
  "images": [
    {
      "uri": "textures/Hair_baseColor.png"
    },
    {
      "uri": "textures/Cloth_baseColor.png"
    },
    {
      "uri": "textures/Body_baseColor.png"
    },
    {
      "uri": "textures/Head_baseColor.png"
    }
  ],
  "materials": [
    {
      "doubleSided": true,
      "extensions": {
        "KHR_materials_unlit": {}
      },
      "name": "Material",
      "pbrMetallicRoughness": {
        "metallicFactor": 0.0
      }
    },
    {
      "doubleSided": true,
      "extensions": {
        "KHR_materials_unlit": {}
      },
      "name": "Material.001",
      "pbrMetallicRoughness": {
        "metallicFactor": 0.0
      }
    },
    {
      "doubleSided": true,
      "extensions": {
        "KHR_materials_unlit": {}
      },
      "name": "Hair",
      "pbrMetallicRoughness": {
        "baseColorTexture": {
          "index": 0
        },
        "metallicFactor": 0.0
      }
    },
    {
      "doubleSided": true,
      "extensions": {
        "KHR_materials_unlit": {}
      },
      "name": "Cloth",
      "pbrMetallicRoughness": {
        "baseColorTexture": {
          "index": 1
        },
        "metallicFactor": 0.0
      }
    },
    {
      "doubleSided": true,
      "extensions": {
        "KHR_materials_unlit": {}
      },
      "name": "Body",
      "pbrMetallicRoughness": {
        "baseColorTexture": {
          "index": 2
        },
        "metallicFactor": 0.0
      }
    },
    {
      "doubleSided": true,
      "extensions": {
        "KHR_materials_unlit": {}
      },
      "name": "Head",
      "pbrMetallicRoughness": {
        "baseColorTexture": {
          "index": 3
        },
        "metallicFactor": 0.0
      }
    }
  ],
  "meshes": [
    {
      "name": "Object_0",
      "primitives": [
        {
          "attributes": {
            "NORMAL": 1,
            "POSITION": 0,
            "TEXCOORD_0": 2
          },
          "indices": 3,
          "material": 0,
          "mode": 4
        }
      ]
    },
    {
      "name": "Object_1",
      "primitives": [
        {
          "attributes": {
            "NORMAL": 5,
            "POSITION": 4,
            "TEXCOORD_0": 6
          },
          "indices": 7,
          "material": 1,
          "mode": 4
        }
      ]
    },
    {
      "name": "Object_2",
      "primitives": [
        {
          "attributes": {
            "NORMAL": 9,
            "POSITION": 8,
            "TEXCOORD_0": 10
          },
          "indices": 11,
          "material": 2,
          "mode": 4
        }
      ]
    },
    {
      "name": "Object_3",
      "primitives": [
        {
          "attributes": {
            "NORMAL": 13,
            "POSITION": 12,
            "TEXCOORD_0": 14
          },
          "indices": 15,
          "material": 3,
          "mode": 4
        }
      ]
    },
    {
      "name": "Object_4",
      "primitives": [
        {
          "attributes": {
            "NORMAL": 17,
            "POSITION": 16,
            "TEXCOORD_0": 18
          },
          "indices": 19,
          "material": 4,
          "mode": 4
        }
      ]
    },
    {
      "name": "Object_5",
      "primitives": [
        {
          "attributes": {
            "NORMAL": 21,
            "POSITION": 20,
            "TEXCOORD_0": 22
          },
          "indices": 23,
          "material": 5,
          "mode": 4
        }
      ]
    }
  ],
  "nodes": [
    {
      "children": [
        1
      ],
      "matrix": [
        1.0,
        0.0,
        0.0,
        0.0,
        0.0,
        2.220446049250313e-16,
        -1.0,
        0.0,
        0.0,
        1.0,
        2.220446049250313e-16,
        0.0,
        0.0,
        0.0,
        0.0,
        1.0
      ],
      "name": "Sketchfab_model"
    },
    {
      "children": [
        2
      ],
      "name": "root"
    },
    {
      "children": [
        3
      ],
      "matrix": [
        1.0,
        0.0,
        0.0,
        0.0,
        0.0,
        2.220446049250313e-16,
        1.0,
        0.0,
        0.0,
        -1.0,
        2.220446049250313e-16,
        0.0,
        0.0,
        0.0,
        0.0,
        1.0
      ],
      "name": "GLTF_SceneRootNode"
    },
    {
      "children": [
        4,
        5,
        6,
        7,
        8,
        9
      ],
      "name": "Circle_0"
    },
    {
      "mesh": 0,
      "name": "Object_4"
    },
    {
      "mesh": 1,
      "name": "Object_5"
    },
    {
      "mesh": 2,
      "name": "Object_6"
    },
    {
      "mesh": 3,
      "name": "Object_7"
    },
    {
      "mesh": 4,
      "name": "Object_8"
    },
    {
      "mesh": 5,
      "name": "Object_9"
    }
  ],
  "samplers": [
    {
      "magFilter": 9729,
      "minFilter": 9987,
      "wrapS": 10497,
      "wrapT": 10497
    }
  ],
  "scene": 0,
  "scenes": [
    {
      "name": "Sketchfab_Scene",
      "nodes": [
        0
      ]
    }
  ],
  "textures": [
    {
      "sampler": 0,
      "source": 0
    },
    {
      "sampler": 0,
      "source": 1
    },
    {
      "sampler": 0,
      "source": 2
    },
    {
      "sampler": 0,
      "source": 3
    }
  ]
}
