{
  "accessors": [
    {
      "bufferView": 2,
      "componentType": 5126,
      "count": 94,
      "max": [
        -1.226483941078186,
        1.0605628490447998,
        0.07653073221445084
      ],
      "min": [
        -1.940039038658142,
        0.7512093782424927,
        -0.0795464739203453
      ],
      "type": "VEC3"
    },
    {
      "bufferView": 2,
      "byteOffset": 1128,
      "componentType": 5126,
      "count": 94,
      "max": [
        0.9599054455757141,
        0.9941773414611816,
        0.9998922944068909
      ],
      "min": [
        -0.9590141177177429,
        -0.9995642900466919,
        -0.9998922944068909
      ],
      "type": "VEC3"
    },
    {
      "bufferView": 1,
      "componentType": 5126,
      "count": 94,
      "max": [
        1.0000001192092896,
        1.0000001192092896
      ],
      "min": [
        0.0,
        0.0
      ],
      "type": "VEC2"
    },
    {
      "bufferView": 0,
      "componentType": 5125,
      "count": 432,
      "type": "SCALAR"
    },
    {
      "bufferView": 2,
      "byteOffset": 2256,
      "componentType": 5126,
      "count": 1120,
      "max": [
        0.7685043811798096,
        0.5060966610908508,
        1.1684969663619995
      ],
      "min": [
        -0.7685043811798096,
        0.1701270341873169,
        0.7300195693969727
      ],
      "type": "VEC3"
    },
    {
      "bufferView": 2,
      "byteOffset": 15696,
      "componentType": 5126,
      "count": 1120,
      "max": [
        0.9635472297668457,
        0.9963996410369873,
        0.9968006014823914
      ],
      "min": [
        -0.96354740858078,
        -0.9967908263206482,
        -0.9998312592506409
      ],
      "type": "VEC3"
    },
    {
      "bufferView": 1,
      "byteOffset": 752,
      "componentType": 5126,
      "count": 1120,
      "max": [
        1.0000001192092896,
        1.0000001192092896
      ],
      "min": [
        0.0,
        0.0
      ],
      "type": "VEC2"
    },
    {
      "bufferView": 0,
      "byteOffset": 1728,
      "componentType": 5125,
      "count": 1680,
      "type": "SCALAR"
    },
    {
      "bufferView": 2,
      "byteOffset": 29136,
      "componentType": 5126,
      "count": 125,
      "max": [
        -1.0083997249603271,
        0.8576933145523071,
        0.22703306376934052
      ],
      "min": [
        -1.5334296226501465,
        0.3326634168624878,
        -0.2305465191602707
      ],
      "type": "VEC3"
    },
    {
      "bufferView": 2,
      "byteOffset": 30636,
      "componentType": 5126,
      "count": 125,
      "max": [
        0.9736068844795227,
        0.9736069440841675,
        1.0
      ],
      "min": [
        -0.9736068844795227,
        -0.9736069440841675,
        -1.0
      ],
      "type": "VEC3"
    },
    {
      "bufferView": 1,
      "byteOffset": 9712,
      "componentType": 5126,
      "count": 125,
      "max": [
        0.8750001192092896,
        1.0000001192092896
      ],
      "min": [
        0.125,
        0.0
      ],
      "type": "VEC2"
    },
    {
      "bufferView": 0,
      "byteOffset": 8448,
      "componentType": 5125,
      "count": 576,
      "type": "SCALAR"
    },
    {
      "bufferView": 2,
      "byteOffset": 32136,
      "componentType": 5126,
      "count": 125,
      "max": [
        -0.7629187107086182,
        1.1926600933074951,
        0.2145715206861496
      ],
      "min": [
        -1.2727911472320557,
        0.6827877163887024,
        -0.218084916472435
      ],
      "type": "VEC3"
    },
    {
      "bufferView": 2,
      "byteOffset": 33636,
      "componentType": 5126,
      "count": 125,
      "max": [
        0.9999643564224243,
        0.9999644160270691,
        1.0
      ],
      "min": [
        -0.9999644160270691,
        -0.9999644160270691,
        -1.0
      ],
      "type": "VEC3"
    },
    {
      "bufferView": 1,
      "byteOffset": 10712,
      "componentType": 5126,
      "count": 125,
      "max": [
        0.8750001192092896,
        1.0000001192092896
      ],
      "min": [
        0.125,
        0.0
      ],
      "type": "VEC2"
    },
    {
      "bufferView": 0,
      "byteOffset": 10752,
      "componentType": 5125,
      "count": 576,
      "type": "SCALAR"
    },
    {
      "bufferView": 2,
      "byteOffset": 35136,
      "componentType": 5126,
      "count": 1056,
      "max": [
        1.8262099027633667,
        0.3926372826099396,
        1.8262096643447876
      ],
      "min": [
        -1.8262096643447876,
        -2.097736120223999,
        -1.8262096643447876
      ],
      "type": "VEC3"
    },
    {
      "bufferView": 2,
      "byteOffset": 47808,
      "componentType": 5126,
      "count": 1056,
      "max": [
        0.9841187000274658,
        1.0,
        0.984118640422821
      ],
      "min": [
        -0.9841187596321106,
        -0.9998173713684082,
        -0.9841187596321106
      ],
      "type": "VEC3"
    },
    {
      "bufferView": 1,
      "byteOffset": 11712,
      "componentType": 5126,
      "count": 1056,
      "max": [
        0.0,
        0.0
      ],
      "min": [
        0.0,
        0.0
      ],
      "type": "VEC2"
    },
    {
      "bufferView": 0,
      "byteOffset": 13056,
      "componentType": 5125,
      "count": 6054,
      "type": "SCALAR"
    },
    {
      "bufferView": 2,
      "byteOffset": 60480,
      "componentType": 5126,
      "count": 144,
      "max": [
        0.4991110861301422,
        1.0460020303726196,
        0.5007075667381287
      ],
      "min": [
        -0.49757426977157593,
        -0.3962146043777466,
        -0.4959777891635895
      ],
      "type": "VEC3"
    },
    {
      "bufferView": 2,
      "byteOffset": 62208,
      "componentType": 5126,
      "count": 144,
      "max": [
        0.9767677187919617,
        0.5972853302955627,
        0.9758922457695007
      ],
      "min": [
        -0.9775950908660889,
        -0.9065440893173218,
        -0.9784385561943054
      ],
      "type": "VEC3"
    },
    {
      "bufferView": 1,
      "byteOffset": 20160,
      "componentType": 5126,
      "count": 144,
      "max": [
        0.0,
        0.0
      ],
      "min": [
        0.0,
        0.0
      ],
      "type": "VEC2"
    },
    {
      "bufferView": 0,
      "byteOffset": 37272,
      "componentType": 5125,
      "count": 732,
      "type": "SCALAR"
    },
    {
      "bufferView": 2,
      "byteOffset": 63936,
      "componentType": 5126,
      "count": 144,
      "max": [
        0.4991110861301422,
        1.0460020303726196,
        0.5007075667381287
      ],
      "min": [
        -0.49757426977157593,
        -0.3962146043777466,
        -0.4959777891635895
      ],
      "type": "VEC3"
    },
    {
      "bufferView": 2,
      "byteOffset": 65664,
      "componentType": 5126,
      "count": 144,
      "max": [
        0.9767677187919617,
        0.5972853302955627,
        0.9758922457695007
      ],
      "min": [
        -0.9775950908660889,
        -0.9065440893173218,
        -0.9784385561943054
      ],
      "type": "VEC3"
    },
    {
      "bufferView": 1,
      "byteOffset": 21312,
      "componentType": 5126,
      "count": 144,
      "max": [
        0.0,
        0.0
      ],
      "min": [
        0.0,
        0.0
      ],
      "type": "VEC2"
    },
    {
      "bufferView": 0,
      "byteOffset": 40200,
      "componentType": 5125,
      "count": 732,
      "type": "SCALAR"
    }
  ],
  "asset": {
    "extras": {
      "author": "copycatypo (https://sketchfab.com/copycatypo)",
      "license": "CC-BY-4.0 (http://creativecommons.org/licenses/by/4.0/)",
      "source": "https://sketchfab.com/3d-models/bocchi-the-rock-634c4da47a5a445da5cb0e45774b9fa1",
      "title": "bocchi the rock"
    },
    "generator": "Sketchfab-14.64.0",
    "version": "2.0"
  },
  "bufferViews": [
    {
      "buffer": 0,
      "byteLength": 43128,
      "name": "floatBufferViews",
      "target": 34963
    },
    {
      "buffer": 0,
      "byteLength": 22464,
      "byteOffset": 43128,
      "byteStride": 8,
      "name": "floatBufferViews",
      "target": 34962
    },
    {
      "buffer": 0,
      "byteLength": 67392,
      "byteOffset": 65592,
      "byteStride": 12,
      "name": "floatBufferViews",
      "target": 34962
    }
  ],
  "buffers": [
    {
      "byteLength": 132984,
      "uri": "scene.bin"
    }
  ],
  "extensionsUsed": [
    "KHR_materials_clearcoat",
    "KHR_materials_transmission"
  ],
  "materials": [
    {
      "doubleSided": true,
      "name": "main",
      "pbrMetallicRoughness": {
        "baseColorFactor": [
          1.0,
          0.27467699999999995,
          0.2704979999999999,
          1.0
        ],
        "metallicFactor": 0.0
      }
    },
    {
      "doubleSided": true,
      "name": "material",
      "pbrMetallicRoughness": {
        "baseColorFactor": [
          0.0,
          0.0,
          0.0,
          1.0
        ],
        "metallicFactor": 0.0,
        "roughnessFactor": 0.5
      }
    },
    {
      "doubleSided": true,
      "name": "yellow",
      "pbrMetallicRoughness": {
        "baseColorFactor": [
          1.0,
          0.531212,
          0.0,
          1.0
        ],
        "metallicFactor": 0.0,
        "roughnessFactor": 0.5
      }
    },
    {
      "doubleSided": true,
      "name": "blue",
      "pbrMetallicRoughness": {
        "baseColorFactor": [
          0.15722399999999992,
          0.46254700000000015,
          1.0,
          1.0
        ],
        "metallicFactor": 0.0,
        "roughnessFactor": 0.5
      }
    },
    {
      "alphaMode": "BLEND",
      "doubleSided": true,
      "extensions": {
        "KHR_materials_clearcoat": {
          "clearcoatFactor": 1.0,
          "clearcoatRoughnessFactor": 0.04
        },
        "KHR_materials_transmission": {
          "transmissionFactor": 0.7946618156154366
        }
      },
      "name": "glass",
      "pbrMetallicRoughness": {
        "baseColorFactor": [
          1.0,
          1.0,
          1.0,
          0.25
        ],
        "roughnessFactor": 0.18625238040191527
      }
    }
  ],
  "meshes": [
    {
      "name": "Object_0",
      "primitives": [
        {
          "attributes": {
            "NORMAL": 1,
            "POSITION": 0,
            "TEXCOORD_0": 2
          },
          "indices": 3,
          "material": 0,
          "mode": 4
        }
      ]
    },
    {
      "name": "Object_1",
      "primitives": [
        {
          "attributes": {
            "NORMAL": 5,
            "POSITION": 4,
            "TEXCOORD_0": 6
          },
          "indices": 7,
          "material": 1,
          "mode": 4
        }
      ]
    },
    {
      "name": "Object_2",
      "primitives": [
        {
          "attributes": {
            "NORMAL": 9,
            "POSITION": 8,
            "TEXCOORD_0": 10
          },
          "indices": 11,
          "material": 2,
          "mode": 4
        }
      ]
    },
    {
      "name": "Object_3",
      "primitives": [
        {
          "attributes": {
            "NORMAL": 13,
            "POSITION": 12,
            "TEXCOORD_0": 14
          },
          "indices": 15,
          "material": 3,
          "mode": 4
        }
      ]
    },
    {
      "name": "Object_4",
      "primitives": [
        {
          "attributes": {
            "NORMAL": 17,
            "POSITION": 16,
            "TEXCOORD_0": 18
          },
          "indices": 19,
          "material": 0,
          "mode": 4
        }
      ]
    },
    {
      "name": "Object_5",
      "primitives": [
        {
          "attributes": {
            "NORMAL": 21,
            "POSITION": 20,
            "TEXCOORD_0": 22
          },
          "indices": 23,
          "material": 4,
          "mode": 4
        }
      ]
    },
    {
      "name": "Object_6",
      "primitives": [
        {
          "attributes": {
            "NORMAL": 25,
            "POSITION": 24,
            "TEXCOORD_0": 26
          },
          "indices": 27,
          "material": 4,
          "mode": 4
        }
      ]
    }
  ],
  "nodes": [
    {
      "children": [
        1
      ],
      "matrix": [
        1.0,
        0.0,
        0.0,
        0.0,
        0.0,
        2.220446049250313e-16,
        -1.0,
        0.0,
        0.0,
        1.0,
        2.220446049250313e-16,
        0.0,
        0.0,
        0.0,
        0.0,
        1.0
      ],
      "name": "Sketchfab_model"
    },
    {
      "children": [
        2
      ],
      "name": "root"
    },
    {
      "children": [
        3,
        5,
        7,
        9,
        11,
        13,
        15
      ],
      "matrix": [
        1.0,
        0.0,
        0.0,
        0.0,
        0.0,
        2.220446049250313e-16,
        1.0,
        0.0,
        0.0,
        -1.0,
        2.220446049250313e-16,
        0.0,
        0.0,
        0.0,
        0.0,
        1.0
      ],
      "name": "GLTF_SceneRootNode"
    },
    {
      "children": [
        4
      ],
      "name": "Plane.003_0"
    },
    {
      "mesh": 0,
      "name": "Object_4"
    },
    {
      "children": [
        6
      ],
      "matrix": [
        1.0,
        0.0,
        0.0,
        0.0,
        0.0,
        0.9780470954107605,
        0.20838397049335325,
        0.0,
        0.0,
        -0.20838397049335325,
        0.9780470954107605,
        0.0,
        0.0,
        0.37520623207092285,
        -0.09878849983215332,
        1.0
      ],
      "name": "Plane.001_1"
    },
    {
      "mesh": 1,
      "name": "Object_6"
    },
    {
      "children": [
        8
      ],
      "name": "Cube.003_2"
    },
    {
      "mesh": 2,
      "name": "Object_8"
    },
    {
      "children": [
        10
      ],
      "name": "Cube.002_3"
    },
    {
      "mesh": 3,
      "name": "Object_10"
    },
    {
      "children": [
        12
      ],
      "matrix": [
        1.0,
        0.0,
        0.0,
        0.0,
        0.0,
        1.0,
        0.0,
        0.0,
        0.0,
        0.0,
        1.0,
        0.0,
        0.0,
        0.7577369213104248,
        0.0,
        1.0
      ],
      "name": "Circle.004_4"
    },
    {
      "mesh": 4,
      "name": "Object_12"
    },
    {
      "children": [
        14
      ],
      "matrix": [
        -0.02466609031990962,
        -0.17268856056448334,
        0.007880945037772234,
        -0.0,
        -0.17217891830816856,
        0.025252425416790424,
        0.01444296911960974,
        0.0,
        0.015422980734949543,
        0.005730647164828992,
        0.17384232972585578,
        0.0,
        0.8564974665641785,
        0.27652832865715027,
        1.0456055402755737,
        1.0
      ],
      "name": "Circle.002_5"
    },
    {
      "mesh": 5,
      "name": "Object_14"
    },
    {
      "children": [
        16
      ],
      "matrix": [
        0.027501390212134984,
        -0.17232874169539047,
        0.006192138425037595,
        0.0,
        0.17238818561961516,
        0.027629038054011266,
        0.003288460305165724,
        0.0,
        -0.0042250741258041125,
        0.005595113768721627,
        0.17447838750612657,
        0.0,
        -0.851705014705658,
        0.27652832865715027,
        1.0456055402755737,
        1.0
      ],
      "name": "Circle.001_6"
    },
    {
      "mesh": 6,
      "name": "Object_16"
    }
  ],
  "scene": 0,
  "scenes": [
    {
      "name": "Sketchfab_Scene",
      "nodes": [
        0
      ]
    }
  ]
}
